<svg xmlns="http://www.w3.org/2000/svg" xmlns:xlink="http://www.w3.org/1999/xlink" width="500" zoomAndPan="magnify" viewBox="0 0 375 374.999991" height="500" preserveAspectRatio="xMidYMid meet" version="1.0"><defs><g/></defs><rect x="-37.5" width="450" fill="#ffffff" y="-37.499999" height="449.999989" fill-opacity="1"/><rect x="-37.5" width="450" fill="#ffffff" y="-37.499999" height="449.999989" fill-opacity="1"/><g fill="#000000" fill-opacity="1"><g transform="translate(57.871859, 201.348372)"><g><path d="M 18.625 -17.65625 C 20.53125 -16.8125 22.039062 -15.617188 23.15625 -14.078125 C 24.269531 -12.546875 24.828125 -10.894531 24.828125 -9.125 C 24.828125 -7.375 24.332031 -5.785156 23.34375 -4.359375 C 22.363281 -2.941406 21.03125 -1.785156 19.34375 -0.890625 C 17.664062 -0.00390625 15.789062 0.484375 13.71875 0.578125 C 13.65625 0.578125 13.578125 0.578125 13.484375 0.578125 C 13.421875 0.578125 13.335938 0.578125 13.234375 0.578125 C 13.203125 0.609375 13.125 0.625 13 0.625 C 12.832031 0.625 12.65625 0.609375 12.46875 0.578125 C 12.40625 0.578125 12.335938 0.578125 12.265625 0.578125 C 10.328125 0.484375 8.53125 0.0351562 6.875 -0.765625 C 5.226562 -1.578125 3.90625 -2.664062 2.90625 -4.03125 C 2.875 -4.0625 2.859375 -4.078125 2.859375 -4.078125 C 2.859375 -4.109375 2.859375 -4.125 2.859375 -4.125 C 2.859375 -4.125 2.859375 -4.140625 2.859375 -4.171875 L 2.953125 -4.265625 L 3.734375 -5.578125 L 3.78125 -5.578125 L 5.140625 -7.8125 C 5.171875 -7.875 5.21875 -7.890625 5.28125 -7.859375 C 5.351562 -7.796875 5.367188 -7.726562 5.328125 -7.65625 L 4.03125 -5.53125 C 4.445312 -3.914062 5.421875 -2.566406 6.953125 -1.484375 C 8.492188 -0.398438 10.265625 0.207031 12.265625 0.34375 C 12.335938 0.34375 12.40625 0.34375 12.46875 0.34375 L 12.515625 0.34375 C 12.671875 0.34375 12.832031 0.34375 13 0.34375 C 13.15625 0.34375 13.316406 0.34375 13.484375 0.34375 C 15.097656 0.28125 16.566406 -0.0976562 17.890625 -0.796875 C 19.222656 -1.492188 20.273438 -2.390625 21.046875 -3.484375 C 21.828125 -4.585938 22.21875 -5.800781 22.21875 -7.125 C 22.21875 -8.550781 21.769531 -9.863281 20.875 -11.0625 C 19.988281 -12.257812 18.785156 -13.179688 17.265625 -13.828125 L 12.65625 -15.8125 L 8.390625 -8.875 C 8.359375 -8.8125 8.328125 -8.78125 8.296875 -8.78125 C 8.265625 -8.78125 8.234375 -8.796875 8.203125 -8.828125 C 8.160156 -8.828125 8.140625 -8.859375 8.140625 -8.921875 C 8.140625 -8.953125 8.160156 -8.984375 8.203125 -9.015625 L 12.421875 -15.90625 L 8 -17.796875 C 6.21875 -18.578125 4.8125 -19.660156 3.78125 -21.046875 C 2.75 -22.441406 2.234375 -23.960938 2.234375 -25.609375 C 2.234375 -27.222656 2.71875 -28.703125 3.6875 -30.046875 C 4.65625 -31.390625 5.957031 -32.457031 7.59375 -33.25 C 9.226562 -34.039062 11.03125 -34.4375 13 -34.4375 C 13.125 -34.4375 13.269531 -34.4375 13.4375 -34.4375 C 15.113281 -34.375 16.671875 -34.015625 18.109375 -33.359375 C 19.546875 -32.710938 20.753906 -31.84375 21.734375 -30.75 L 21.78125 -30.75 C 21.78125 -30.71875 21.78125 -30.6875 21.78125 -30.65625 C 21.78125 -30.625 21.78125 -30.59375 21.78125 -30.5625 L 21.046875 -29.390625 L 14.796875 -19.25 Z M 13 -34.1875 C 11.476562 -34.1875 10.101562 -33.878906 8.875 -33.265625 C 7.644531 -32.648438 6.65625 -31.84375 5.90625 -30.84375 C 5.164062 -29.84375 4.796875 -28.726562 4.796875 -27.5 C 4.796875 -26.238281 5.195312 -25.070312 6 -24 C 6.8125 -22.9375 7.914062 -22.128906 9.3125 -21.578125 L 14.546875 -19.34375 L 20.8125 -29.484375 C 20.289062 -30.804688 19.347656 -31.894531 17.984375 -32.75 C 16.628906 -33.613281 15.097656 -34.078125 13.390625 -34.140625 C 13.390625 -34.140625 13.375 -34.140625 13.34375 -34.140625 C 13.269531 -34.171875 13.203125 -34.1875 13.140625 -34.1875 C 13.078125 -34.1875 13.03125 -34.1875 13 -34.1875 Z M 13 -34.1875 "/></g></g></g><g fill="#000000" fill-opacity="1"><g transform="translate(84.644763, 201.348372)"><g><path d="M 35.890625 -0.140625 C 35.953125 -0.140625 36 -0.09375 36.03125 0 C 36.03125 0.09375 35.984375 0.140625 35.890625 0.140625 L 27.546875 0.140625 C 27.453125 0.140625 27.40625 0.09375 27.40625 0 C 27.40625 -0.09375 27.453125 -0.140625 27.546875 -0.140625 C 28.035156 -0.140625 28.457031 -0.304688 28.8125 -0.640625 C 29.164062 -0.984375 29.34375 -1.414062 29.34375 -1.9375 C 29.34375 -2.257812 29.257812 -2.550781 29.09375 -2.8125 L 25.359375 -11.34375 C 24.710938 -12.800781 23.726562 -13.957031 22.40625 -14.8125 C 21.082031 -15.675781 19.628906 -16.109375 18.046875 -16.109375 C 16.585938 -16.109375 15.25 -15.75 14.03125 -15.03125 C 12.820312 -14.320312 11.863281 -13.359375 11.15625 -12.140625 C 10.445312 -10.929688 10.09375 -9.597656 10.09375 -8.140625 C 10.09375 -6.660156 10.445312 -5.3125 11.15625 -4.09375 C 11.863281 -2.882812 12.820312 -1.921875 14.03125 -1.203125 C 15.25 -0.492188 16.585938 -0.140625 18.046875 -0.140625 C 18.140625 -0.140625 18.1875 -0.09375 18.1875 0 C 18.1875 0.09375 18.140625 0.140625 18.046875 0.140625 L 0.4375 0.140625 C 0.34375 0.140625 0.296875 0.09375 0.296875 0 C 0.296875 -0.09375 0.34375 -0.140625 0.4375 -0.140625 C 1.664062 -0.140625 2.796875 -0.476562 3.828125 -1.15625 C 4.867188 -1.84375 5.628906 -2.75 6.109375 -3.875 L 18.578125 -34.140625 L 18.671875 -34.34375 C 18.671875 -34.375 18.6875 -34.390625 18.71875 -34.390625 C 18.71875 -34.390625 18.71875 -34.40625 18.71875 -34.4375 C 18.75 -34.4375 18.765625 -34.4375 18.765625 -34.4375 C 18.796875 -34.4375 18.828125 -34.4375 18.859375 -34.4375 C 18.859375 -34.4375 18.859375 -34.421875 18.859375 -34.390625 C 18.898438 -34.390625 18.921875 -34.375 18.921875 -34.34375 L 31.375 -5.875 C 31.632812 -5.320312 31.765625 -4.738281 31.765625 -4.125 C 31.765625 -3.21875 31.515625 -2.398438 31.015625 -1.671875 C 30.515625 -0.941406 29.84375 -0.429688 29 -0.140625 Z M 18.046875 -16.390625 C 19.335938 -16.390625 20.546875 -16.109375 21.671875 -15.546875 C 22.804688 -14.984375 23.765625 -14.195312 24.546875 -13.1875 L 17.171875 -30.0625 L 6.359375 -3.828125 C 6.359375 -3.796875 6.359375 -3.78125 6.359375 -3.78125 C 6.328125 -3.75 6.328125 -3.75 6.359375 -3.78125 L 5.09375 -0.828125 C 5.09375 -0.765625 5.0625 -0.734375 5 -0.734375 C 4.96875 -0.734375 4.953125 -0.734375 4.953125 -0.734375 C 4.847656 -0.765625 4.8125 -0.828125 4.84375 -0.921875 L 5.4375 -2.28125 C 4.59375 -1.207031 3.523438 -0.492188 2.234375 -0.140625 L 16 -0.140625 C 14.1875 -0.597656 12.695312 -1.566406 11.53125 -3.046875 C 10.375 -4.535156 9.796875 -6.21875 9.796875 -8.09375 C 9.796875 -9.613281 10.164062 -11.003906 10.90625 -12.265625 C 11.65625 -13.523438 12.648438 -14.523438 13.890625 -15.265625 C 15.140625 -16.015625 16.523438 -16.390625 18.046875 -16.390625 Z M 18.046875 -16.390625 "/></g></g></g><g fill="#000000" fill-opacity="1"><g transform="translate(121.069488, 201.348372)"><g><path d="M 21.921875 -3.0625 C 21.953125 -3.019531 21.984375 -2.984375 22.015625 -2.953125 C 22.015625 -2.921875 22.015625 -2.890625 22.015625 -2.859375 L 20.609375 0.046875 C 20.578125 0.078125 20.5625 0.09375 20.5625 0.09375 C 20.53125 0.125 20.5 0.140625 20.46875 0.140625 L 2.515625 0.140625 C 2.453125 0.140625 2.394531 0.140625 2.34375 0.140625 C 2.300781 0.140625 2.25 0.140625 2.1875 0.140625 C 2.082031 0.140625 2.03125 0.09375 2.03125 0 C 2.03125 -0.09375 2.082031 -0.140625 2.1875 -0.140625 L 2.46875 -0.140625 C 3.082031 -0.210938 3.597656 -0.484375 4.015625 -0.953125 C 4.441406 -1.421875 4.65625 -1.976562 4.65625 -2.625 L 4.65625 -28.078125 C 4.65625 -29.367188 5.035156 -30.523438 5.796875 -31.546875 C 6.554688 -32.566406 7.550781 -33.269531 8.78125 -33.65625 L 2.1875 -33.65625 C 2.082031 -33.65625 2.03125 -33.703125 2.03125 -33.796875 C 2.03125 -33.867188 2.082031 -33.90625 2.1875 -33.90625 L 10.46875 -33.90625 C 10.570312 -33.90625 10.625 -33.867188 10.625 -33.796875 C 10.625 -33.703125 10.570312 -33.65625 10.46875 -33.65625 C 10.4375 -33.65625 10.40625 -33.65625 10.375 -33.65625 C 10.34375 -33.65625 10.296875 -33.65625 10.234375 -33.65625 C 9.585938 -33.59375 9.050781 -33.316406 8.625 -32.828125 C 8.207031 -32.347656 8 -31.785156 8 -31.140625 L 8 -5.671875 C 8 -4.410156 7.617188 -3.269531 6.859375 -2.25 C 6.097656 -1.238281 5.117188 -0.535156 3.921875 -0.140625 L 9.171875 -0.140625 C 11.234375 -0.140625 13.175781 -0.269531 15 -0.53125 C 16.832031 -0.789062 18.351562 -1.128906 19.5625 -1.546875 C 20.78125 -1.972656 21.519531 -2.441406 21.78125 -2.953125 C 21.78125 -2.984375 21.796875 -3.019531 21.828125 -3.0625 C 21.859375 -3.0625 21.890625 -3.0625 21.921875 -3.0625 Z M 21.921875 -3.0625 "/></g></g></g><g fill="#000000" fill-opacity="1"><g transform="translate(143.671249, 201.348372)"><g><path d="M 7.375 -29.296875 C 9.082031 -31.003906 11.003906 -32.285156 13.140625 -33.140625 C 15.273438 -34.003906 17.484375 -34.4375 19.765625 -34.4375 C 22.046875 -34.4375 24.25 -34.003906 26.375 -33.140625 C 28.507812 -32.285156 30.4375 -31.003906 32.15625 -29.296875 C 33.800781 -27.648438 35.066406 -25.75 35.953125 -23.59375 C 36.847656 -21.445312 37.296875 -19.207031 37.296875 -16.875 C 37.296875 -14.550781 36.847656 -12.3125 35.953125 -10.15625 C 35.066406 -8.007812 33.800781 -6.128906 32.15625 -4.515625 C 30.507812 -2.859375 28.609375 -1.585938 26.453125 -0.703125 C 24.304688 0.179688 22.066406 0.625 19.734375 0.625 C 17.410156 0.625 15.179688 0.179688 13.046875 -0.703125 C 10.910156 -1.585938 9.019531 -2.859375 7.375 -4.515625 C 5.65625 -6.222656 4.367188 -8.144531 3.515625 -10.28125 C 2.660156 -12.414062 2.234375 -14.625 2.234375 -16.90625 C 2.234375 -19.1875 2.660156 -21.390625 3.515625 -23.515625 C 4.367188 -25.648438 5.65625 -27.578125 7.375 -29.296875 Z M 7.515625 -29.09375 C 6.222656 -27.800781 5.316406 -26.257812 4.796875 -24.46875 C 4.285156 -22.675781 4.148438 -20.785156 4.390625 -18.796875 C 4.628906 -16.804688 5.242188 -14.820312 6.234375 -12.84375 C 7.222656 -10.875 8.554688 -9.050781 10.234375 -7.375 C 11.910156 -5.6875 13.734375 -4.347656 15.703125 -3.359375 C 17.679688 -2.378906 19.664062 -1.765625 21.65625 -1.515625 C 23.644531 -1.273438 25.535156 -1.414062 27.328125 -1.9375 C 29.117188 -2.457031 30.664062 -3.363281 31.96875 -4.65625 C 33.257812 -5.945312 34.171875 -7.484375 34.703125 -9.265625 C 35.234375 -11.046875 35.382812 -12.953125 35.15625 -14.984375 C 34.90625 -17.054688 34.273438 -19.078125 33.265625 -21.046875 C 32.265625 -23.015625 30.941406 -24.8125 29.296875 -26.4375 C 27.359375 -28.40625 25.210938 -29.890625 22.859375 -30.890625 C 20.515625 -31.890625 18.226562 -32.390625 16 -32.390625 C 14.382812 -32.390625 12.847656 -32.113281 11.390625 -31.5625 C 9.941406 -31.019531 8.648438 -30.195312 7.515625 -29.09375 Z M 7.515625 -29.09375 "/></g></g></g><g fill="#000000" fill-opacity="1"><g transform="translate(183.248592, 201.348372)"><g><path d="M 18.625 -17.65625 C 20.53125 -16.8125 22.039062 -15.617188 23.15625 -14.078125 C 24.269531 -12.546875 24.828125 -10.894531 24.828125 -9.125 C 24.828125 -7.375 24.332031 -5.785156 23.34375 -4.359375 C 22.363281 -2.941406 21.03125 -1.785156 19.34375 -0.890625 C 17.664062 -0.00390625 15.789062 0.484375 13.71875 0.578125 C 13.65625 0.578125 13.578125 0.578125 13.484375 0.578125 C 13.421875 0.578125 13.335938 0.578125 13.234375 0.578125 C 13.203125 0.609375 13.125 0.625 13 0.625 C 12.832031 0.625 12.65625 0.609375 12.46875 0.578125 C 12.40625 0.578125 12.335938 0.578125 12.265625 0.578125 C 10.328125 0.484375 8.53125 0.0351562 6.875 -0.765625 C 5.226562 -1.578125 3.90625 -2.664062 2.90625 -4.03125 C 2.875 -4.0625 2.859375 -4.078125 2.859375 -4.078125 C 2.859375 -4.109375 2.859375 -4.125 2.859375 -4.125 C 2.859375 -4.125 2.859375 -4.140625 2.859375 -4.171875 L 2.953125 -4.265625 L 3.734375 -5.578125 L 3.78125 -5.578125 L 5.140625 -7.8125 C 5.171875 -7.875 5.21875 -7.890625 5.28125 -7.859375 C 5.351562 -7.796875 5.367188 -7.726562 5.328125 -7.65625 L 4.03125 -5.53125 C 4.445312 -3.914062 5.421875 -2.566406 6.953125 -1.484375 C 8.492188 -0.398438 10.265625 0.207031 12.265625 0.34375 C 12.335938 0.34375 12.40625 0.34375 12.46875 0.34375 L 12.515625 0.34375 C 12.671875 0.34375 12.832031 0.34375 13 0.34375 C 13.15625 0.34375 13.316406 0.34375 13.484375 0.34375 C 15.097656 0.28125 16.566406 -0.0976562 17.890625 -0.796875 C 19.222656 -1.492188 20.273438 -2.390625 21.046875 -3.484375 C 21.828125 -4.585938 22.21875 -5.800781 22.21875 -7.125 C 22.21875 -8.550781 21.769531 -9.863281 20.875 -11.0625 C 19.988281 -12.257812 18.785156 -13.179688 17.265625 -13.828125 L 12.65625 -15.8125 L 8.390625 -8.875 C 8.359375 -8.8125 8.328125 -8.78125 8.296875 -8.78125 C 8.265625 -8.78125 8.234375 -8.796875 8.203125 -8.828125 C 8.160156 -8.828125 8.140625 -8.859375 8.140625 -8.921875 C 8.140625 -8.953125 8.160156 -8.984375 8.203125 -9.015625 L 12.421875 -15.90625 L 8 -17.796875 C 6.21875 -18.578125 4.8125 -19.660156 3.78125 -21.046875 C 2.75 -22.441406 2.234375 -23.960938 2.234375 -25.609375 C 2.234375 -27.222656 2.71875 -28.703125 3.6875 -30.046875 C 4.65625 -31.390625 5.957031 -32.457031 7.59375 -33.25 C 9.226562 -34.039062 11.03125 -34.4375 13 -34.4375 C 13.125 -34.4375 13.269531 -34.4375 13.4375 -34.4375 C 15.113281 -34.375 16.671875 -34.015625 18.109375 -33.359375 C 19.546875 -32.710938 20.753906 -31.84375 21.734375 -30.75 L 21.78125 -30.75 C 21.78125 -30.71875 21.78125 -30.6875 21.78125 -30.65625 C 21.78125 -30.625 21.78125 -30.59375 21.78125 -30.5625 L 21.046875 -29.390625 L 14.796875 -19.25 Z M 13 -34.1875 C 11.476562 -34.1875 10.101562 -33.878906 8.875 -33.265625 C 7.644531 -32.648438 6.65625 -31.84375 5.90625 -30.84375 C 5.164062 -29.84375 4.796875 -28.726562 4.796875 -27.5 C 4.796875 -26.238281 5.195312 -25.070312 6 -24 C 6.8125 -22.9375 7.914062 -22.128906 9.3125 -21.578125 L 14.546875 -19.34375 L 20.8125 -29.484375 C 20.289062 -30.804688 19.347656 -31.894531 17.984375 -32.75 C 16.628906 -33.613281 15.097656 -34.078125 13.390625 -34.140625 C 13.390625 -34.140625 13.375 -34.140625 13.34375 -34.140625 C 13.269531 -34.171875 13.203125 -34.1875 13.140625 -34.1875 C 13.078125 -34.1875 13.03125 -34.1875 13 -34.1875 Z M 13 -34.1875 "/></g></g></g><g fill="#000000" fill-opacity="1"><g transform="translate(210.021489, 201.348372)"><g><path d="M 31.375 -0.140625 C 31.476562 -0.140625 31.53125 -0.09375 31.53125 0 C 31.53125 0.09375 31.476562 0.140625 31.375 0.140625 L 23.03125 0.140625 C 23 0.140625 22.96875 0.125 22.9375 0.09375 C 22.90625 0.0625 22.890625 0.03125 22.890625 0 C 22.890625 -0.09375 22.9375 -0.140625 23.03125 -0.140625 C 23.394531 -0.140625 23.703125 -0.253906 23.953125 -0.484375 C 24.210938 -0.742188 24.34375 -1.050781 24.34375 -1.40625 C 24.3125 -1.695312 24.21875 -1.941406 24.0625 -2.140625 L 13.71875 -17.515625 C 13.175781 -18.222656 12.46875 -18.625 11.59375 -18.71875 C 10.75 -18.851562 9.988281 -18.675781 9.3125 -18.1875 L 8 -17.078125 L 8 -5.671875 C 8 -4.085938 7.4375 -2.710938 6.3125 -1.546875 C 5.625 -0.898438 4.8125 -0.429688 3.875 -0.140625 L 10.46875 -0.140625 C 10.570312 -0.140625 10.625 -0.09375 10.625 0 C 10.625 0.0625 10.570312 0.09375 10.46875 0.09375 L 2.1875 0.140625 C 2.15625 0.140625 2.117188 0.125 2.078125 0.09375 C 2.046875 0.0625 2.03125 0.03125 2.03125 0 C 2.03125 -0.03125 2.03125 -0.046875 2.03125 -0.046875 C 2.0625 -0.078125 2.078125 -0.09375 2.078125 -0.09375 C 2.117188 -0.09375 2.140625 -0.09375 2.140625 -0.09375 C 2.140625 -0.125 2.140625 -0.140625 2.140625 -0.140625 C 2.140625 -0.140625 2.15625 -0.140625 2.1875 -0.140625 C 2.863281 -0.140625 3.441406 -0.378906 3.921875 -0.859375 C 4.410156 -1.347656 4.65625 -1.9375 4.65625 -2.625 L 4.703125 -23.234375 L 4.703125 -28.125 C 4.703125 -29.707031 5.269531 -31.082031 6.40625 -32.25 C 7.082031 -32.925781 7.875 -33.394531 8.78125 -33.65625 L 2.1875 -33.65625 C 2.15625 -33.65625 2.117188 -33.671875 2.078125 -33.703125 C 2.046875 -33.734375 2.03125 -33.765625 2.03125 -33.796875 C 2.03125 -33.898438 2.082031 -33.953125 2.1875 -33.953125 L 10.53125 -33.953125 C 10.53125 -33.953125 10.546875 -33.9375 10.578125 -33.90625 C 10.640625 -33.875 10.671875 -33.835938 10.671875 -33.796875 C 10.671875 -33.703125 10.625 -33.65625 10.53125 -33.65625 C 9.8125 -33.65625 9.210938 -33.414062 8.734375 -32.9375 C 8.242188 -32.445312 8 -31.863281 8 -31.1875 L 8 -17.40625 L 9.0625 -18.28125 C 9.0625 -18.28125 9.0625 -18.285156 9.0625 -18.296875 C 9.0625 -18.316406 9.0625 -18.328125 9.0625 -18.328125 L 14.109375 -22.546875 L 18.28125 -26.09375 C 19.21875 -26.96875 19.6875 -28.035156 19.6875 -29.296875 C 19.6875 -30.492188 19.257812 -31.519531 18.40625 -32.375 C 17.550781 -33.226562 16.523438 -33.65625 15.328125 -33.65625 C 15.234375 -33.65625 15.1875 -33.703125 15.1875 -33.796875 C 15.1875 -33.867188 15.234375 -33.90625 15.328125 -33.90625 L 30.984375 -33.90625 C 31.023438 -33.90625 31.046875 -33.90625 31.046875 -33.90625 C 31.078125 -33.875 31.09375 -33.835938 31.09375 -33.796875 C 31.09375 -33.734375 31.078125 -33.6875 31.046875 -33.65625 C 31.003906 -33.65625 30.984375 -33.65625 30.984375 -33.65625 C 28.859375 -33.65625 26.96875 -33.007812 25.3125 -31.71875 L 10.578125 -19.25 C 11.515625 -19.644531 12.484375 -19.804688 13.484375 -19.734375 C 15.160156 -19.578125 16.535156 -18.867188 17.609375 -17.609375 C 17.734375 -17.441406 17.863281 -17.28125 18 -17.125 L 18.046875 -17.03125 L 26 -5.234375 C 26.382812 -4.648438 26.5625 -4.035156 26.53125 -3.390625 C 26.53125 -2.679688 26.332031 -2.023438 25.9375 -1.421875 C 25.550781 -0.828125 25.019531 -0.398438 24.34375 -0.140625 Z M 19.9375 -29.296875 C 19.9375 -28.453125 19.722656 -27.675781 19.296875 -26.96875 L 24.734375 -31.53125 C 24.734375 -31.5625 24.75 -31.578125 24.78125 -31.578125 C 24.8125 -31.640625 24.859375 -31.691406 24.921875 -31.734375 C 24.992188 -31.785156 25.0625 -31.828125 25.125 -31.859375 L 26.71875 -33.21875 C 26.789062 -33.28125 26.859375 -33.28125 26.921875 -33.21875 C 26.953125 -33.1875 26.953125 -33.15625 26.921875 -33.125 C 26.921875 -33.09375 26.921875 -33.0625 26.921875 -33.03125 L 26.765625 -32.9375 C 27.410156 -33.257812 28.09375 -33.5 28.8125 -33.65625 L 16.828125 -33.65625 C 17.765625 -33.332031 18.515625 -32.773438 19.078125 -31.984375 C 19.648438 -31.191406 19.9375 -30.296875 19.9375 -29.296875 Z M 19.9375 -29.296875 "/></g></g></g><g fill="#000000" fill-opacity="1"><g transform="translate(242.226566, 201.348372)"><g><path d="M 8 -5.671875 C 8 -4.410156 7.617188 -3.257812 6.859375 -2.21875 C 6.097656 -1.1875 5.101562 -0.476562 3.875 -0.09375 L 10.46875 -0.140625 C 10.570312 -0.140625 10.625 -0.09375 10.625 0 C 10.625 0.03125 10.609375 0.0625 10.578125 0.09375 C 10.578125 0.125 10.5625 0.140625 10.53125 0.140625 L 2.1875 0.140625 C 2.15625 0.140625 2.117188 0.125 2.078125 0.09375 C 2.046875 0.0625 2.03125 0.03125 2.03125 0 C 2.03125 -0.03125 2.046875 -0.046875 2.078125 -0.046875 L 2.078125 -0.09375 C 2.078125 -0.09375 2.097656 -0.09375 2.140625 -0.09375 C 2.140625 -0.09375 2.15625 -0.09375 2.1875 -0.09375 C 2.863281 -0.09375 3.441406 -0.34375 3.921875 -0.84375 C 4.410156 -1.34375 4.65625 -1.9375 4.65625 -2.625 L 4.65625 -28.078125 C 4.65625 -29.367188 5.035156 -30.523438 5.796875 -31.546875 C 6.554688 -32.566406 7.550781 -33.269531 8.78125 -33.65625 L 2.1875 -33.65625 C 2.082031 -33.65625 2.03125 -33.703125 2.03125 -33.796875 C 2.03125 -33.867188 2.082031 -33.90625 2.1875 -33.90625 L 10.46875 -33.90625 C 10.570312 -33.90625 10.625 -33.867188 10.625 -33.796875 C 10.625 -33.703125 10.570312 -33.65625 10.46875 -33.65625 C 10.4375 -33.65625 10.40625 -33.65625 10.375 -33.65625 C 10.34375 -33.65625 10.296875 -33.65625 10.234375 -33.65625 C 9.585938 -33.59375 9.050781 -33.316406 8.625 -32.828125 C 8.207031 -32.347656 8 -31.785156 8 -31.140625 Z M 8 -5.671875 "/></g></g></g><g fill="#000000" fill-opacity="1"><g transform="translate(254.933998, 201.348372)"><g><path d="M 21.921875 -3.0625 C 21.953125 -3.019531 21.984375 -2.984375 22.015625 -2.953125 C 22.015625 -2.921875 22.015625 -2.890625 22.015625 -2.859375 L 20.609375 0.046875 C 20.578125 0.078125 20.5625 0.09375 20.5625 0.09375 C 20.53125 0.125 20.5 0.140625 20.46875 0.140625 L 2.515625 0.140625 C 2.453125 0.140625 2.394531 0.140625 2.34375 0.140625 C 2.300781 0.140625 2.25 0.140625 2.1875 0.140625 C 2.082031 0.140625 2.03125 0.09375 2.03125 0 C 2.03125 -0.09375 2.082031 -0.140625 2.1875 -0.140625 L 2.46875 -0.140625 C 3.082031 -0.210938 3.597656 -0.484375 4.015625 -0.953125 C 4.441406 -1.421875 4.65625 -1.976562 4.65625 -2.625 L 4.65625 -28.078125 C 4.65625 -29.367188 5.035156 -30.523438 5.796875 -31.546875 C 6.554688 -32.566406 7.550781 -33.269531 8.78125 -33.65625 L 2.1875 -33.65625 C 2.082031 -33.65625 2.03125 -33.703125 2.03125 -33.796875 C 2.03125 -33.867188 2.082031 -33.90625 2.1875 -33.90625 L 10.46875 -33.90625 C 10.570312 -33.90625 10.625 -33.867188 10.625 -33.796875 C 10.625 -33.703125 10.570312 -33.65625 10.46875 -33.65625 C 10.4375 -33.65625 10.40625 -33.65625 10.375 -33.65625 C 10.34375 -33.65625 10.296875 -33.65625 10.234375 -33.65625 C 9.585938 -33.59375 9.050781 -33.316406 8.625 -32.828125 C 8.207031 -32.347656 8 -31.785156 8 -31.140625 L 8 -5.671875 C 8 -4.410156 7.617188 -3.269531 6.859375 -2.25 C 6.097656 -1.238281 5.117188 -0.535156 3.921875 -0.140625 L 9.171875 -0.140625 C 11.234375 -0.140625 13.175781 -0.269531 15 -0.53125 C 16.832031 -0.789062 18.351562 -1.128906 19.5625 -1.546875 C 20.78125 -1.972656 21.519531 -2.441406 21.78125 -2.953125 C 21.78125 -2.984375 21.796875 -3.019531 21.828125 -3.0625 C 21.859375 -3.0625 21.890625 -3.0625 21.921875 -3.0625 Z M 21.921875 -3.0625 "/></g></g></g><g fill="#000000" fill-opacity="1"><g transform="translate(277.53576, 201.348372)"><g><path d="M 7.375 -29.296875 C 9.082031 -31.003906 11.003906 -32.285156 13.140625 -33.140625 C 15.273438 -34.003906 17.484375 -34.4375 19.765625 -34.4375 C 22.046875 -34.4375 24.25 -34.003906 26.375 -33.140625 C 28.507812 -32.285156 30.4375 -31.003906 32.15625 -29.296875 C 33.800781 -27.648438 35.066406 -25.75 35.953125 -23.59375 C 36.847656 -21.445312 37.296875 -19.207031 37.296875 -16.875 C 37.296875 -14.550781 36.847656 -12.3125 35.953125 -10.15625 C 35.066406 -8.007812 33.800781 -6.128906 32.15625 -4.515625 C 30.507812 -2.859375 28.609375 -1.585938 26.453125 -0.703125 C 24.304688 0.179688 22.066406 0.625 19.734375 0.625 C 17.410156 0.625 15.179688 0.179688 13.046875 -0.703125 C 10.910156 -1.585938 9.019531 -2.859375 7.375 -4.515625 C 5.65625 -6.222656 4.367188 -8.144531 3.515625 -10.28125 C 2.660156 -12.414062 2.234375 -14.625 2.234375 -16.90625 C 2.234375 -19.1875 2.660156 -21.390625 3.515625 -23.515625 C 4.367188 -25.648438 5.65625 -27.578125 7.375 -29.296875 Z M 7.515625 -29.09375 C 6.222656 -27.800781 5.316406 -26.257812 4.796875 -24.46875 C 4.285156 -22.675781 4.148438 -20.785156 4.390625 -18.796875 C 4.628906 -16.804688 5.242188 -14.820312 6.234375 -12.84375 C 7.222656 -10.875 8.554688 -9.050781 10.234375 -7.375 C 11.910156 -5.6875 13.734375 -4.347656 15.703125 -3.359375 C 17.679688 -2.378906 19.664062 -1.765625 21.65625 -1.515625 C 23.644531 -1.273438 25.535156 -1.414062 27.328125 -1.9375 C 29.117188 -2.457031 30.664062 -3.363281 31.96875 -4.65625 C 33.257812 -5.945312 34.171875 -7.484375 34.703125 -9.265625 C 35.234375 -11.046875 35.382812 -12.953125 35.15625 -14.984375 C 34.90625 -17.054688 34.273438 -19.078125 33.265625 -21.046875 C 32.265625 -23.015625 30.941406 -24.8125 29.296875 -26.4375 C 27.359375 -28.40625 25.210938 -29.890625 22.859375 -30.890625 C 20.515625 -31.890625 18.226562 -32.390625 16 -32.390625 C 14.382812 -32.390625 12.847656 -32.113281 11.390625 -31.5625 C 9.941406 -31.019531 8.648438 -30.195312 7.515625 -29.09375 Z M 7.515625 -29.09375 "/></g></g></g></svg>